Andrew Blake's Blond & Brunettes (2001)

Directly from DVD

* * * Raw File Report for Andrew Blake - Blonds & Brunettes (2001).mkv

General
Format                           : Matroska
File size                        : 3.65 GiB
Duration                         : 1h 21mn
Overall bit rate                 : 6 389 Kbps
Encoded date                     : UTC 2011-12-02 21:15:34
Writing application              : MakeMKV v1.6.16 darwin(x86-release)
Writing library                  : libmakemkv v1.6.16 (1.2.0/1.1.0) darwin(x86-release)

Video
ID                               : 1
Format                           : MPEG Video
Format version                   : Version 2
Format profile                   : Main@Main
Format settings, BVOP            : No
Format settings, Matrix          : Default
Codec ID                         : V_MPEG2
Codec ID/Info                    : MPEG 1 or 2 Video
Duration                         : 1h 21mn
Bit rate mode                    : Constant
Bit rate                         : 6 000 Kbps
Width                            : 720 pixels
Height                           : 576 pixels
Display aspect ratio             : 4:3
Frame rate                       : 25.000 fps
Standard                         : PAL
Color space                      : YUV
Chroma subsampling               : 4:2:0
Bit depth                        : 8 bits
Scan type                        : Interlaced
Scan order                       : Top Field First
Compression mode                 : Lossy
Bits/(Pixel*Frame)               : 0.579
Stream size                      : 3.36 GiB (92%)
Language                         : English

Audio
ID                               : 2
Format                           : AC-3
Format/Info                      : Audio Coding 3
Mode extension                   : CM (complete main)
Codec ID                         : A_AC3
Duration                         : 1h 21mn
Bit rate mode                    : Constant
Bit rate                         : 384 Kbps
Channel(s)                       : 2 channels
Channel positions                : Front: L R
Sampling rate                    : 48.0 KHz
Bit depth                        : 16 bits
Compression mode                 : Lossy
Stream size                      : 225 MiB (6%)
Title                            : 2/0
Language                         : English
